<svg xmlns="http://www.w3.org/2000/svg" width="114.424" height="106.788"><g data-name="Group 777" clip-path="url(&quot;#a&quot;)"><path d="M38.148 61.02h34.324v11.443H38.148V61.02z" fill="#76a516" fill-rule="evenodd" data-name="Rectangle 60"/><path d="M38.148 34.324h49.58v11.442h-49.58V34.324z" fill="#76a516" fill-rule="evenodd" data-name="Rectangle 59"/><path d="M91.54 0H34.335a22.882 22.882 0 0 0-22.883 22.883v56.274L3.367 87.24h-.002a11.443 11.443 0 0 0 8.086 19.547h80.09a22.884 22.884 0 0 0 22.883-22.883v-61.02A22.883 22.883 0 0 0 91.54.001V0Zm11.443 83.903-.001.002a11.441 11.441 0 0 1-11.441 11.44H11.45l11.442-11.442-.001-61.02a11.441 11.441 0 0 1 11.442-11.44h57.207a11.441 11.441 0 0 1 11.44 11.44l.002 61.02Z" fill="#76a516" fill-rule="evenodd" data-name="Path 1085"/></g><defs><clipPath id="a"><path d="M0 0h114.424v106.788H0V0z" data-name="Rectangle 61"/></clipPath></defs></svg>